# xmcd CD database file
# Copyright (C) 1993-1998 Ti Kan
#
# Track frame offsets:
#	150
#	13688
#	29228
#	45350
#	63638
#	78140
#	100278
#	116550
#	138455
#	150413
#	168800
#	188308
#
# Disc length: 2754 seconds
#
# Revision: 1
# Processed by: cddbd v1.4b41PL1 Copyright (c) Steve Scherf et al.
# Submitted via: CDValet v3.31 - Copyright (c) 1997 Greg Leichner
#
DISCID=8d0ac00c
DTITLE=Collins, Jimmy "The Kid" - Wanted:   Recorded or Live
DYEAR=1900
DGENRE=
TTITLE0=Outlaw Blood
TTITLE1=Rodeo Buck
TTITLE2=When Nobody Needs a Cowboy Nomore
TTITLE3=Rockin' at the Road to Ruin
TTITLE4=Whithout the Whisky
TTITLE5=She Gave It All Up for Love
TTITLE6=Cowboy Rap
TTITLE7=How Deep in Love Can One Man Be?
TTITLE8=The Outlaw's Last Request
TTITLE9=The Best Kept Secret
TTITLE10=I'm Not Ready Yet or Am I?
TTITLE11=Ain't It Strange
EXTD=Submitted BY WinSkol\n\nCountry\n
EXTT0=
EXTT1=
EXTT2=
EXTT3=
EXTT4=
EXTT5=
EXTT6=
EXTT7=
EXTT8=
EXTT9=
EXTT10=
EXTT11=
PLAYORDER=
